<svg xmlns="http://www.w3.org/2000/svg" width="400" height="400" version="1.0" viewBox="0 0 300 300"><path fill="#f0ece6" d="M-30-30h360v360H-30z"/><path fill="#cfad86" d="M-30-30h360v360H-30z"/><path fill="#f0ece6" d="M84.4 54.6v4.7H68.8l56 162.9h.5l22-61.8-35-101.1H94.8v-4.7h119.7v4.7h-8.8a27 27 0 0 0-13.2 2.9c-3.6 2-6.3 5.6-8.3 10.9L166 123.4l32.6 98.8h.6l50.3-141.5c1.4-3.9 2.3-6.8 2.8-8.6.5-2 .7-3.4.7-4.6 0-2.2-.8-4-2.5-5.7-1.6-1.7-5.4-2.5-11.3-2.5h-7.6v-4.7h52.3v4.7c-4.1 0-7.6.2-10.6.7a19 19 0 0 0-7.6 3c-2.2 1.4-4 3.5-5.6 6.3a70.3 70.3 0 0 0-4.7 10.5l-67.7 188.9h-3.8L150.6 168h-.6l-36.2 100.6H110L37 59.3H16.3v-4.7Zm58.5 4.7 19.5 57.3h.5a8072.4 8072.4 0 0 1 14-39.1l2-6.6.2-4.3c0-2-.7-3.7-2-5.1-1.4-1.5-4.4-2.2-8.9-2.2Zm0 0"/></svg>