<?xml version="1.0" standalone="no"?>
<!DOCTYPE svg PUBLIC "-//W3C//DTD SVG 20010904//EN"
 "http://www.w3.org/TR/2001/REC-SVG-20010904/DTD/svg10.dtd">
<svg version="1.0" xmlns="http://www.w3.org/2000/svg"
 width="700.000000pt" height="700.000000pt" viewBox="0 0 700.000000 700.000000"
 preserveAspectRatio="xMidYMid meet">
<metadata>
Created by potrace 1.14, written by Peter Selinger 2001-2017
</metadata>
<g transform="translate(0.000000,700.000000) scale(0.100000,-0.100000)"
fill="#000000" stroke="none">
<path d="M0 3500 l0 -3500 3500 0 3500 0 0 3500 0 3500 -3500 0 -3500 0 0
-3500z m1970 2170 l0 -50 -185 0 c-102 0 -185 -1 -185 -2 4 -28 1310 -3803
1317 -3805 5 -2 125 322 267 721 l258 723 -409 1182 -408 1181 -202 0 -203 0
0 50 0 50 1390 0 1390 0 0 -50 0 -50 -148 0 c-292 0 -436 -69 -525 -253 -19
-40 -130 -336 -246 -659 l-212 -587 380 -1151 c208 -634 382 -1154 385 -1158
4 -3 10 -1 15 4 18 20 1224 3434 1244 3521 24 106 17 149 -34 207 -50 57 -93
68 -281 74 l-168 5 0 48 0 49 605 0 605 0 0 -48 0 -49 -113 -6 c-258 -15 -370
-85 -474 -296 -29 -59 -367 -987 -853 -2345 l-805 -2247 -40 3 -40 3 -57 170
c-31 94 -206 621 -388 1173 -190 575 -336 1002 -343 1002 -7 0 -198 -519 -432
-1170 l-420 -1170 -44 2 -44 3 -850 2438 -850 2437 -244 0 -243 0 0 50 0 50
795 0 795 0 0 -50z"/>
<path d="M3332 5608 c3 -7 106 -309 229 -670 123 -362 229 -658 234 -658 10 0
305 807 360 986 31 100 34 213 7 264 -11 20 -38 46 -63 60 l-44 25 -364 3
c-296 3 -363 1 -359 -10z"/>
</g>
</svg>
