<?xml version="1.0" standalone="no"?>
<!DOCTYPE svg PUBLIC "-//W3C//DTD SVG 20010904//EN"
 "http://www.w3.org/TR/2001/REC-SVG-20010904/DTD/svg10.dtd">
<svg version="1.0" xmlns="http://www.w3.org/2000/svg"
 width="700.000000pt" height="700.000000pt" viewBox="0 0 700.000000 700.000000"
 preserveAspectRatio="xMidYMid meet">
<metadata>
Created by potrace 1.14, written by Peter Selinger 2001-2017
</metadata>
<g transform="translate(0.000000,700.000000) scale(0.100000,-0.100000)"
fill="#000000" stroke="none">
<path d="M0 3500 l0 -3500 3500 0 3500 0 0 3500 0 3500 -3500 0 -3500 0 0
-3500z m1970 2175 l0 -55 -180 0 c-99 0 -180 -4 -180 -8 0 -8 1238 -3616 1281
-3734 12 -32 25 -58 28 -58 4 0 48 116 98 258 50 141 148 417 218 612 70 195
143 403 164 461 l38 106 -373 1079 c-206 593 -390 1125 -410 1182 l-36 102
-205 0 -204 0 3 53 3 52 1393 3 1392 2 0 -54 0 -53 -162 -6 c-169 -5 -236 -17
-325 -59 -67 -31 -143 -111 -181 -188 -39 -82 -452 -1224 -452 -1252 0 -12 75
-246 166 -522 236 -714 474 -1435 534 -1619 29 -87 56 -157 62 -155 5 2 84
213 175 468 91 256 345 971 565 1590 508 1426 508 1428 515 1517 5 65 3 76
-21 117 -17 29 -41 53 -65 66 -47 24 -172 40 -309 40 l-103 0 3 53 3 52 608 3
607 2 0 -55 c0 -37 -4 -55 -12 -55 -7 0 -65 -5 -128 -10 -245 -20 -355 -96
-457 -317 -20 -43 -74 -183 -120 -313 -46 -129 -118 -327 -158 -440 -41 -113
-223 -621 -405 -1130 -182 -509 -364 -1017 -405 -1130 -70 -196 -541 -1511
-550 -1537 -3 -8 -22 -13 -49 -13 l-45 0 -340 1028 c-186 565 -361 1093 -387
1175 -27 81 -52 146 -57 144 -5 -1 -199 -530 -431 -1175 l-421 -1173 -44 3
-45 3 -633 1815 c-348 998 -731 2096 -851 2440 l-218 625 -242 3 -242 2 0 55
0 55 795 0 795 0 0 -55z"/>
<path d="M3340 5611 c0 -6 75 -230 166 -498 91 -268 191 -563 222 -655 32 -91
61 -168 66 -170 10 -3 320 853 361 997 30 106 32 175 6 230 -21 47 -43 67 -91
85 -45 17 -730 28 -730 11z"/>
</g>
</svg>
